<?xml version="1.0" standalone="no"?>
<!DOCTYPE svg PUBLIC "-//W3C//DTD SVG 20010904//EN"
 "http://www.w3.org/TR/2001/REC-SVG-20010904/DTD/svg10.dtd">
<svg version="1.0" xmlns="http://www.w3.org/2000/svg"
 width="300.000000pt" height="300.000000pt" viewBox="140.000000 240.000000 80.000000 360.000000"
 preserveAspectRatio="xMidYMid meet">
<metadata>
Created by potrace 1.10, written by Peter Selinger 2001-2011
</metadata>
<g transform="translate(0.000000,300.000000) scale(0.0200000,-0.0200000)"
fill="#000000" stroke="none">
    <circle id="Oval" fill="#E8BEAC" cx="1500.000000" cy="1500.000000" r="1500"></circle>
<path d="M1205 2970 c-386 -77 -733 -309 -950 -635 -148 -222 -247 -512 -244
-712 l2 -78 10 75 c5 41 12 77 16 80 4 3 8 14 9 25 7 93 21 163 32 170 5 3 6
13 3 23 -6 24 37 137 92 240 116 217 296 419 507 568 88 63 235 144 261 144
19 0 23 -15 7 -25 -5 -3 -10 -1 -10 4 0 6 -4 11 -10 11 -5 0 -7 -8 -4 -17 5
-14 4 -15 -4 -4 -11 15 -27 -2 -18 -18 4 -5 -4 -7 -16 -3 -14 3 -19 2 -14 -6
11 -19 40 -14 66 11 14 12 29 21 35 19 5 -2 7 0 3 3 -16 16 14 43 59 55 26 7
52 12 56 11 5 -1 6 3 2 9 -3 6 3 10 15 10 14 0 19 -4 14 -12 -5 -9 -2 -9 9 1
9 7 17 9 17 3 0 -12 -52 -47 -64 -44 -5 2 -3 -4 4 -13 13 -15 15 -15 25 -1 7
9 15 12 19 8 4 -4 6 -2 4 5 -3 12 59 73 76 74 6 0 22 3 36 5 23 4 22 2 -13
-28 -20 -18 -37 -37 -37 -41 0 -5 24 12 53 38 45 40 57 46 90 43 20 -2 37 0
37 4 0 5 7 8 15 8 8 0 15 -6 15 -12 0 -9 3 -10 8 -2 4 6 14 14 22 17 37 14
-154 4 -235 -13z"/>
<path d="M1530 2981 c0 -5 10 -7 22 -3 12 3 19 1 15 -4 -3 -6 14 -9 43 -7 27
2 51 0 54 -6 3 -5 15 -7 25 -4 10 3 22 0 25 -5 3 -6 14 -8 25 -5 10 2 25 -2
34 -11 13 -13 16 -14 21 -1 4 12 11 13 32 4 15 -5 33 -8 40 -5 7 3 14 1 16 -4
2 -5 12 -11 23 -13 11 -2 33 -9 48 -15 16 -7 35 -12 43 -12 8 0 14 -4 14 -10
0 -5 9 -10 21 -10 15 0 19 -4 15 -16 -5 -13 -3 -14 6 -7 7 5 22 7 33 3 11 -4
30 -10 43 -15 12 -4 22 -12 22 -17 0 -5 6 -8 13 -5 6 2 28 -9 48 -24 20 -16
39 -26 42 -23 3 4 16 -9 27 -27 18 -27 21 -29 17 -11 -5 23 -5 23 14 6 10 -9
19 -23 19 -31 0 -7 5 -13 11 -13 5 0 7 5 3 11 -4 8 0 7 15 -1 12 -6 25 -18 28
-26 3 -7 9 -12 13 -9 5 3 18 -7 30 -22 12 -16 18 -21 14 -13 -4 8 23 -14 59
-50 37 -36 67 -71 67 -78 0 -7 4 -11 9 -8 12 8 33 -19 23 -29 -4 -5 -1 -5 6
-1 7 4 12 2 12 -6 0 -7 11 -22 25 -32 13 -10 23 -22 20 -25 -2 -4 5 -14 16
-21 21 -16 25 -36 7 -42 -9 -3 -9 -6 0 -12 7 -4 12 -2 12 3 0 6 5 11 11 11 5
0 8 -4 5 -9 -3 -5 1 -11 9 -15 8 -3 15 -15 15 -26 0 -12 5 -18 10 -15 6 3 10
1 10 -5 0 -6 10 -27 23 -48 13 -20 23 -49 22 -64 -1 -15 1 -25 6 -23 7 5 11
-36 11 -103 -1 -22 3 -30 11 -25 8 4 7 1 -1 -9 -9 -11 -9 -17 -2 -20 6 -2 13
-21 15 -43 3 -22 6 -49 8 -60 2 -11 -3 -31 -11 -45 -13 -23 -13 -24 2 -6 15
19 16 17 16 -33 0 -29 5 -61 10 -72 7 -13 7 -19 0 -19 -5 0 -10 -10 -10 -22 0
-17 3 -19 9 -10 7 11 9 11 14 -1 3 -9 0 -18 -8 -21 -8 -3 -11 -13 -8 -26 5
-18 7 -18 17 -5 9 13 11 12 11 -9 0 -13 -3 -22 -7 -19 -5 2 -8 -1 -8 -6 0 -6
5 -11 11 -11 6 0 9 -7 5 -15 -3 -8 -1 -27 5 -42 9 -24 8 -25 -7 -12 -16 13
-17 11 -10 -16 4 -16 7 -35 8 -42 1 -7 5 -10 10 -7 17 11 7 -9 -14 -26 l-23
-19 25 6 c25 7 25 7 7 -20 -10 -15 -13 -27 -8 -27 5 0 7 -9 4 -20 -3 -11 1
-28 8 -37 8 -9 9 -14 2 -10 -8 5 -11 -14 -11 -68 0 -41 -3 -79 -6 -84 -3 -5
-8 -37 -11 -71 -2 -33 -8 -66 -11 -72 -6 -10 -10 -28 -13 -71 0 -9 -10 -26
-21 -37 -11 -11 -15 -20 -9 -20 7 0 5 -9 -5 -23 -17 -23 -40 -71 -34 -73 2 0
-3 -8 -11 -17 -7 -9 -18 -14 -24 -10 -6 3 -7 1 -3 -5 7 -11 -11 -51 -29 -64
-5 -4 -10 -11 -10 -16 0 -10 -51 -75 -93 -119 -12 -13 -27 -21 -32 -18 -6 4
-7 -1 -3 -11 5 -14 3 -16 -11 -11 -10 4 -15 3 -11 -3 7 -11 -97 -120 -114
-120 -5 0 -14 -6 -18 -13 -11 -17 -89 -77 -100 -77 -5 0 -18 -8 -29 -17 -41
-36 -202 -119 -212 -109 -2 3 -13 -3 -23 -13 -25 -23 -88 -42 -121 -36 -19 4
-31 -1 -41 -15 -7 -11 -17 -17 -21 -13 -4 4 -10 2 -14 -4 -4 -7 -64 -21 -132
-32 -69 -11 -136 -22 -150 -24 -14 -2 7 -5 46 -6 206 -4 524 112 751 272 111
79 261 229 340 340 154 218 268 522 274 735 3 101 -7 81 -21 -43 -7 -63 -16
-115 -20 -115 -4 0 -7 -13 -8 -29 -1 -44 -20 -107 -37 -121 -13 -11 -13 -9 0
16 11 22 12 30 2 36 -7 4 -7 8 -2 8 6 0 11 33 12 75 0 42 4 87 7 101 5 17 3
23 -4 19 -6 -3 -10 3 -10 15 0 12 4 19 10 15 5 -3 7 17 5 52 -3 32 -7 99 -9
148 -3 50 -9 113 -15 140 -5 28 -12 76 -15 108 -14 141 -18 174 -26 207 -5 19
-11 62 -15 95 l-6 60 17 -35 c9 -19 23 -78 30 -129 8 -52 19 -100 25 -105 9
-8 10 -6 5 7 -9 28 -20 103 -13 97 6 -6 43 -145 51 -191 2 -15 8 -53 12 -85 4
-33 9 -62 10 -66 1 -5 2 -23 3 -40 2 -25 4 -29 10 -15 11 29 -6 172 -34 285
-139 556 -602 993 -1167 1103 -102 20 -258 26 -258 10z m1367 -1983 c-3 -7 -5
-2 -5 12 0 14 2 19 5 13 2 -7 2 -19 0 -25z m-977 -908 c0 -5 -5 -10 -11 -10
-5 0 -7 5 -4 10 3 6 8 10 11 10 2 0 4 -4 4 -10z"/>
<path d="M1285 2920 c-3 -5 -1 -10 4 -10 6 0 11 5 11 10 0 6 -2 10 -4 10 -3 0
-8 -4 -11 -10z"/>
<path d="M1808 2923 c7 -3 16 -2 19 1 4 3 -2 6 -13 5 -11 0 -14 -3 -6 -6z"/>
<path d="M1570 2910 c0 -5 5 -10 11 -10 5 0 7 5 4 10 -3 6 -8 10 -11 10 -2 0
-4 -4 -4 -10z"/>
<path d="M1353 2893 c0 -10 4 -10 16 -1 9 7 18 13 20 15 2 1 -5 1 -16 0 -11 0
-20 -7 -20 -14z"/>
<path d="M1520 2900 c-8 -5 -10 -10 -5 -10 6 0 17 5 25 10 8 5 11 10 5 10 -5
0 -17 -5 -25 -10z"/>
<path d="M1797 2893 c-10 -10 -8 -23 4 -23 5 0 7 5 4 10 -3 6 -2 10 4 10 5 0
11 -6 14 -12 3 -10 8 -10 18 1 8 8 9 11 2 7 -6 -3 -14 -2 -18 4 -7 12 -19 13
-28 3z"/>
<path d="M1487 2873 c5 -13 2 -15 -15 -11 -23 6 -31 -6 -9 -15 17 -6 45 15 40
31 -3 6 -9 12 -14 12 -4 0 -6 -7 -2 -17z"/>
<path d="M1154 2833 c-15 -20 -23 -33 -16 -29 13 8 56 66 49 66 -3 0 -17 -17
-33 -37z"/>
<path d="M1063 2841 c-10 -15 -10 -20 0 -24 16 -5 40 20 32 33 -9 15 -19 12
-32 -9z"/>
<path d="M1129 2843 c-8 -10 -21 -27 -29 -38 -15 -20 -15 -20 9 0 21 18 47 55
38 55 -2 0 -10 -8 -18 -17z"/>
<path d="M1225 2851 c-7 -12 12 -24 25 -16 6 3 10 12 9 18 0 9 -2 9 -6 0 -2
-7 -9 -13 -14 -13 -6 0 -7 5 -4 10 3 6 4 10 1 10 -3 0 -7 -4 -11 -9z"/>
<path d="M1350 2850 c-8 -5 -12 -12 -9 -15 4 -3 12 1 19 10 14 17 11 19 -10 5z"/>
<path d="M1407 2830 c-9 -11 -23 -20 -30 -20 -15 0 -47 -35 -47 -53 0 -6 8 -2
18 9 9 12 32 29 50 38 17 9 32 21 32 27 0 6 5 7 12 3 7 -4 8 -3 4 4 -10 17
-19 15 -39 -8z"/>
<path d="M1766 2821 c-4 -6 -2 -11 4 -11 8 0 8 -6 0 -20 -6 -11 -8 -20 -6 -20
3 0 10 8 15 18 11 20 -2 52 -13 33z"/>
<path d="M1906 2819 c2 -4 13 -7 24 -6 23 2 17 10 -10 12 -10 1 -17 -2 -14 -6z"/>
<path d="M1465 2809 c-4 -6 -5 -12 -2 -15 2 -3 7 2 10 11 7 17 1 20 -8 4z"/>
<path d="M1265 2800 c-4 -6 -10 -8 -15 -5 -4 3 -14 -3 -21 -13 -12 -15 -12
-16 2 -5 9 7 18 11 21 8 3 -3 11 1 18 10 7 8 10 15 7 15 -3 0 -9 -5 -12 -10z"/>
<path d="M1299 2789 l-24 -20 28 17 c15 9 27 18 27 20 0 8 -8 4 -31 -17z"/>
<path d="M850 2778 c-8 -13 -13 -27 -12 -31 1 -5 -2 -6 -8 -2 -5 3 -10 1 -10
-4 0 -6 0 -13 0 -16 0 -3 -9 -14 -20 -25 -12 -12 -35 -50 -52 -85 -17 -36 -34
-62 -39 -59 -5 3 -6 -3 -2 -12 5 -13 3 -15 -7 -9 -8 5 -11 4 -7 -2 3 -5 -14
-60 -38 -121 -54 -138 -84 -233 -133 -432 -22 -85 -49 -193 -61 -240 -13 -47
-23 -95 -24 -107 -1 -13 -8 -23 -15 -23 -7 0 -12 -6 -11 -12 3 -24 -1 -39 -8
-35 -5 3 -9 -7 -10 -21 -1 -23 2 -20 23 18 19 36 23 39 17 15 -4 -16 -7 -38
-7 -47 0 -10 -3 -18 -6 -18 -3 0 -6 -16 -7 -35 -1 -19 0 -35 3 -35 8 0 27 54
30 85 7 67 14 103 27 135 3 8 8 33 11 55 3 22 12 57 20 77 10 23 12 39 6 43
-6 3 -10 12 -10 18 0 7 4 6 10 -3 5 -8 10 -13 11 -10 5 28 4 50 -3 50 -4 0 1
22 12 49 10 27 16 52 13 55 -4 3 -1 6 5 6 6 0 9 7 5 17 -4 10 -2 14 4 10 6 -4
9 8 8 28 0 19 3 35 7 35 4 0 8 14 8 30 0 26 22 88 51 142 5 10 9 27 9 38 0 11
4 20 9 20 5 0 7 10 4 23 -4 18 -3 19 6 7 9 -12 10 -9 5 14 -5 19 -3 27 3 23
12 -8 26 20 17 34 -3 5 0 9 5 9 6 0 11 11 11 24 0 14 10 33 23 43 13 10 22 24
20 30 -2 6 5 21 17 33 12 12 20 27 17 33 -4 11 16 38 25 34 2 -1 -4 4 -12 12
-13 12 -13 13 2 8 13 -5 22 3 35 31 9 20 20 39 24 42 4 3 8 14 10 25 2 11 15
25 29 32 14 7 20 13 13 13 -6 0 -17 2 -25 5 -7 3 -20 -5 -28 -17z"/>
<path d="M1159 2747 c-20 -29 -41 -51 -47 -50 -6 2 -9 -4 -6 -12 4 -9 1 -22
-6 -30 -8 -9 -9 -15 -2 -15 6 0 30 31 54 69 23 38 45 68 49 66 3 -2 6 2 6 10
0 25 -10 17 -48 -38z"/>
<path d="M1797 2793 c-12 -11 -8 -22 13 -33 14 -7 20 -7 20 0 0 5 -7 10 -15
10 -21 0 -19 18 3 23 14 4 14 5 1 6 -9 0 -19 -2 -22 -6z"/>
<path d="M802 2770 c-18 -29 -15 -38 4 -12 9 13 14 25 12 27 -2 2 -9 -5 -16
-15z"/>
<path d="M1109 2773 c-13 -16 -12 -17 4 -4 9 7 17 15 17 17 0 8 -8 3 -21 -13z"/>
<path d="M1915 2780 c-3 -5 -1 -10 4 -10 6 0 11 5 11 10 0 6 -2 10 -4 10 -3 0
-8 -4 -11 -10z"/>
<path d="M1417 2769 c7 -7 15 -10 18 -7 3 3 -2 9 -12 12 -14 6 -15 5 -6 -5z"/>
<path d="M880 2755 c-7 -9 -10 -18 -6 -22 3 -3 6 -1 6 6 0 7 4 10 8 7 5 -3 9
1 9 9 0 19 -2 19 -17 0z"/>
<path d="M1893 2755 c0 -8 7 -17 15 -20 21 -8 22 -3 2 17 -13 14 -17 15 -17 3z"/>
<path d="M1966 2762 c-3 -5 1 -9 9 -9 8 0 12 4 9 9 -3 4 -7 8 -9 8 -2 0 -6 -4
-9 -8z"/>
<path d="M2032 2765 c12 -34 53 -105 60 -105 4 0 -2 17 -13 38 -23 39 -54 84
-47 67z"/>
<path d="M1309 2753 c-1 -5 -1 -11 -1 -15 1 -3 -5 -12 -13 -18 -8 -7 -15 -9
-15 -5 0 4 -7 2 -15 -5 -8 -7 -12 -16 -9 -22 8 -12 -15 -38 -29 -32 -12 4 -42
-34 -34 -43 3 -3 11 5 17 17 8 16 14 19 19 11 5 -8 15 -1 31 21 12 19 37 44
54 56 23 16 26 22 13 22 -10 0 -15 5 -12 10 3 6 4 10 1 10 -3 0 -7 -3 -7 -7z"/>
<path d="M1085 2739 c-4 -6 -5 -12 -2 -15 2 -3 7 2 10 11 7 17 1 20 -8 4z"/>
<path d="M1740 2739 c0 -5 5 -7 10 -4 6 3 10 8 10 11 0 2 -4 4 -10 4 -5 0 -10
-5 -10 -11z"/>
<path d="M2210 2738 c0 -9 -6 -19 -12 -21 -10 -4 -10 -6 0 -6 14 -1 28 26 18
36 -3 4 -6 -1 -6 -9z"/>
<path d="M985 2731 c-3 -5 -1 -12 5 -16 5 -3 10 1 10 9 0 18 -6 21 -15 7z"/>
<path d="M2256 2727 c3 -10 9 -15 12 -12 3 3 0 11 -7 18 -10 9 -11 8 -5 -6z"/>
<path d="M907 2700 c-10 -16 -16 -30 -14 -30 2 0 13 14 25 30 13 17 19 30 14
30 -4 0 -16 -13 -25 -30z"/>
<path d="M1361 2709 c-13 -11 -22 -21 -20 -23 2 -3 17 7 32 20 15 13 24 24 20
24 -4 -1 -19 -10 -32 -21z"/>
<path d="M1760 2726 c0 -2 7 -7 16 -10 8 -3 12 -2 9 4 -6 10 -25 14 -25 6z"/>
<path d="M1507 2713 c-4 -3 -7 -11 -7 -17 0 -6 5 -5 12 2 6 6 9 14 7 17 -3 3
-9 2 -12 -2z"/>
<path d="M1611 2700 c-13 -11 -19 -20 -13 -20 6 0 17 7 26 15 15 16 31 21 23
8 -3 -5 11 -8 31 -9 l37 -1 -30 13 c-40 17 -46 17 -74 -6z"/>
<path d="M1920 2701 c0 -9 30 -24 36 -18 2 1 -6 8 -16 15 -11 7 -20 8 -20 3z"/>
<path d="M736 2675 c-9 -26 -7 -32 5 -12 6 10 9 21 6 23 -2 3 -7 -2 -11 -11z"/>
<path d="M1055 2632 c-16 -26 -35 -57 -43 -69 -8 -13 -10 -23 -6 -23 9 1 87
131 81 136 -1 2 -16 -18 -32 -44z"/>
<path d="M936 2655 c3 -6 11 -12 18 -12 8 0 12 6 10 12 -3 6 -11 12 -18 12 -8
0 -12 -6 -10 -12z"/>
<path d="M1035 2660 c-3 -5 -1 -10 4 -10 6 0 11 5 11 10 0 6 -2 10 -4 10 -3 0
-8 -4 -11 -10z"/>
<path d="M1139 2653 c-13 -17 -13 -17 6 -3 11 8 22 16 24 17 2 2 0 3 -6 3 -6
0 -17 -8 -24 -17z"/>
<path d="M1295 2660 c3 -5 11 -10 16 -10 6 0 7 5 4 10 -3 6 -11 10 -16 10 -6
0 -7 -4 -4 -10z"/>
<path d="M2210 2666 c0 -2 8 -10 18 -17 15 -13 16 -12 3 4 -13 16 -21 21 -21
13z"/>
<path d="M2135 2650 c3 -5 8 -10 11 -10 2 0 4 5 4 10 0 6 -5 10 -11 10 -5 0
-7 -4 -4 -10z"/>
<path d="M2350 2650 c0 -5 5 -10 11 -10 5 0 7 5 4 10 -3 6 -8 10 -11 10 -2 0
-4 -4 -4 -10z"/>
<path d="M1316 2622 l-19 -27 24 22 c12 12 21 24 18 27 -2 2 -13 -8 -23 -22z"/>
<path d="M920 2615 c-7 -9 -10 -18 -7 -21 3 -3 10 4 17 15 13 25 8 27 -10 6z"/>
<path d="M1109 2613 c-13 -16 -12 -17 4 -4 9 7 17 15 17 17 0 8 -8 3 -21 -13z"/>
<path d="M1353 2618 c-15 -20 -25 -38 -20 -38 3 0 12 11 21 25 17 26 16 35 -1
13z"/>
<path d="M995 2599 c-4 -6 -5 -12 -2 -15 2 -3 7 2 10 11 7 17 1 20 -8 4z"/>
<path d="M1066 2593 c-6 -14 -5 -15 5 -6 7 7 10 15 7 18 -3 3 -9 -2 -12 -12z"/>
<path d="M1122 2598 c-7 -7 -12 -17 -12 -22 0 -6 5 -3 11 7 6 9 15 14 21 11 7
-4 8 -2 4 4 -9 15 -9 15 -24 0z"/>
<path d="M2030 2594 c0 -8 5 -12 10 -9 6 4 8 11 5 16 -9 14 -15 11 -15 -7z"/>
<path d="M1220 2558 l-23 -33 28 27 c16 15 26 30 23 33 -3 4 -16 -9 -28 -27z"/>
<path d="M889 2563 c-13 -16 -12 -17 4 -4 9 7 17 15 17 17 0 8 -8 3 -21 -13z"/>
<path d="M923 2568 c-15 -18 -35 -58 -29 -58 2 0 13 16 25 35 20 35 22 46 4
23z"/>
<path d="M1160 2569 c0 -5 5 -7 10 -4 6 3 10 8 10 11 0 2 -4 4 -10 4 -5 0 -10
-5 -10 -11z"/>
<path d="M1058 2563 c6 -2 9 -10 6 -15 -4 -7 -2 -8 5 -4 13 9 5 26 -12 25 -9
0 -8 -2 1 -6z"/>
<path d="M1232 2532 c-13 -13 -22 -26 -19 -28 2 -2 14 7 27 21 13 14 22 26 19
28 -2 2 -14 -8 -27 -21z"/>
<path d="M1285 2510 c-50 -51 -54 -63 -10 -34 14 9 22 20 19 25 -3 5 -1 9 4 9
5 0 17 11 26 25 9 14 15 25 13 25 -1 0 -25 -22 -52 -50z"/>
<path d="M1360 2545 c-7 -9 -11 -17 -9 -20 3 -2 10 5 17 15 14 24 10 26 -8 5z"/>
<path d="M2070 2540 c0 -11 4 -20 9 -20 5 0 7 9 4 20 -3 11 -7 20 -9 20 -2 0
-4 -9 -4 -20z"/>
<path d="M1080 2530 c-6 -11 -8 -20 -6 -20 3 0 10 9 16 20 6 11 8 20 6 20 -3
0 -10 -9 -16 -20z"/>
<path d="M2036 2537 c3 -10 9 -15 12 -12 3 3 0 11 -7 18 -10 9 -11 8 -5 -6z"/>
<path d="M805 2529 c-4 -6 -5 -12 -2 -15 2 -3 7 2 10 11 7 17 1 20 -8 4z"/>
<path d="M1105 2512 c-16 -27 -16 -27 2 -6 10 11 27 20 37 18 10 -1 15 0 12 4
-15 15 -36 8 -51 -16z"/>
<path d="M2340 2535 c0 -5 5 -17 10 -25 5 -8 10 -10 10 -5 0 6 -5 17 -10 25
-5 8 -10 11 -10 5z"/>
<path d="M1324 2490 c0 -13 4 -16 10 -10 7 7 7 13 0 20 -6 6 -10 3 -10 -10z"/>
<path d="M966 2475 c-9 -26 -7 -32 5 -12 6 10 9 21 6 23 -2 3 -7 -2 -11 -11z"/>
<path d="M997 2483 c-4 -3 -7 -11 -7 -17 0 -6 5 -5 12 2 6 6 9 14 7 17 -3 3
-9 2 -12 -2z"/>
<path d="M1170 2471 c-7 -15 -7 -22 2 -27 7 -4 10 -4 6 1 -4 4 -3 16 3 26 5
11 7 19 5 19 -3 0 -10 -9 -16 -19z"/>
<path d="M2104 2460 c1 -16 6 -32 13 -34 8 -3 9 4 2 26 -12 42 -16 44 -15 8z"/>
<path d="M1062 2450 c-13 -16 -19 -30 -14 -30 4 0 16 14 25 30 10 17 16 30 14
30 -2 0 -13 -13 -25 -30z"/>
<path d="M645 2449 c-4 -6 -5 -12 -2 -15 2 -3 7 2 10 11 7 17 1 20 -8 4z"/>
<path d="M2271 2450 c0 -8 4 -24 9 -35 9 -20 9 -20 9 0 0 11 -4 27 -9 35 -9
13 -10 13 -9 0z"/>
<path d="M1218 2433 c-27 -31 -83 -116 -118 -178 -18 -33 -40 -68 -48 -77 -8
-10 -11 -18 -5 -18 12 0 46 47 62 88 8 17 17 32 20 32 4 0 18 19 31 43 13 23
36 61 51 85 30 44 32 54 7 25z"/>
<path d="M940 2425 c-6 -8 -10 -19 -8 -26 2 -6 9 0 16 15 13 29 10 33 -8 11z"/>
<path d="M1090 2429 c0 -5 5 -7 10 -4 6 3 10 8 10 11 0 2 -4 4 -10 4 -5 0 -10
-5 -10 -11z"/>
<path d="M1285 2420 c-3 -5 -1 -10 4 -10 6 0 11 5 11 10 0 6 -2 10 -4 10 -3 0
-8 -4 -11 -10z"/>
<path d="M1051 2382 c-13 -20 -33 -50 -43 -65 -11 -16 -18 -30 -16 -33 2 -2
15 15 29 37 13 22 32 49 43 59 10 10 17 23 15 29 -2 6 -15 -6 -28 -27z"/>
<path d="M2340 2409 c0 -5 5 -7 10 -4 6 3 10 8 10 11 0 2 -4 4 -10 4 -5 0 -10
-5 -10 -11z"/>
<path d="M1110 2387 c-29 -42 -31 -47 -23 -47 9 0 46 61 40 66 -1 2 -9 -7 -17
-19z"/>
<path d="M1215 2390 c-3 -6 1 -7 9 -4 18 7 21 14 7 14 -6 0 -13 -4 -16 -10z"/>
<path d="M795 2379 c-4 -6 -5 -12 -2 -15 2 -3 7 2 10 11 7 17 1 20 -8 4z"/>
<path d="M2447 2374 c6 -15 23 -19 23 -5 0 5 -7 11 -14 14 -10 4 -13 1 -9 -9z"/>
<path d="M2390 2371 c0 -6 4 -13 10 -16 6 -3 7 1 4 9 -7 18 -14 21 -14 7z"/>
<path d="M1250 2359 c0 -5 -4 -8 -9 -4 -5 3 -13 0 -17 -6 -4 -8 -3 -9 4 -5 15
9 15 1 2 -25 -18 -33 -3 -21 19 16 11 19 16 35 11 35 -6 0 -10 -5 -10 -11z"/>
<path d="M2135 2321 c3 -24 7 -46 10 -49 8 -8 4 40 -6 68 -6 19 -7 14 -4 -19z"/>
<path d="M895 2310 c-3 -6 1 -7 9 -4 18 7 21 14 7 14 -6 0 -13 -4 -16 -10z"/>
<path d="M1036 2296 c-23 -36 -20 -44 5 -12 12 15 19 29 16 32 -2 2 -12 -7
-21 -20z"/>
<path d="M2221 2304 c-1 -11 6 -29 15 -40 8 -10 12 -13 9 -6 -4 8 -11 26 -15
40 -7 22 -8 23 -9 6z"/>
<path d="M2267 2239 c4 -13 8 -18 11 -10 2 7 -1 18 -6 23 -8 8 -9 4 -5 -13z"/>
<path d="M529 2213 c-5 -14 -8 -30 -6 -36 1 -5 8 7 14 27 13 42 7 49 -8 9z"/>
<path d="M2159 2223 c-13 -16 -12 -17 4 -4 9 7 17 15 17 17 0 8 -8 3 -21 -13z"/>
<path d="M2426 2227 c3 -10 9 -15 12 -12 3 3 0 11 -7 18 -10 9 -11 8 -5 -6z"/>
<path d="M1175 2210 c-3 -6 1 -7 9 -4 18 7 21 14 7 14 -6 0 -13 -4 -16 -10z"/>
<path d="M2159 2193 c-12 -16 -12 -17 2 -6 9 7 20 9 24 5 5 -4 5 -1 1 6 -9 16
-11 15 -27 -5z"/>
<path d="M1143 2174 c0 -7 4 -11 8 -8 4 2 9 -1 11 -8 3 -7 7 -8 11 -2 3 5 -2
15 -12 21 -14 9 -18 8 -18 -3z"/>
<path d="M302 2160 c0 -14 2 -19 5 -12 2 6 2 18 0 25 -3 6 -5 1 -5 -13z"/>
<path d="M2316 2167 c3 -10 9 -15 12 -12 3 3 0 11 -7 18 -10 9 -11 8 -5 -6z"/>
<path d="M2231 2154 c0 -11 3 -14 6 -6 3 7 2 16 -1 19 -3 4 -6 -2 -5 -13z"/>
<path d="M963 2119 c-8 -21 -16 -28 -25 -23 -10 5 -11 4 -1 -6 11 -12 15 -11
28 6 12 16 21 54 12 54 -1 0 -8 -14 -14 -31z"/>
<path d="M1023 2118 c-29 -50 -33 -65 -17 -65 8 0 13 5 11 11 -3 6 4 26 15 44
11 18 18 35 15 38 -2 3 -13 -10 -24 -28z"/>
<path d="M1110 2129 c-7 -11 -10 -23 -7 -25 2 -2 9 7 15 21 14 30 7 33 -8 4z"/>
<path d="M2190 2129 c0 -11 4 -18 10 -14 5 3 7 12 3 20 -7 21 -13 19 -13 -6z"/>
<path d="M719 2123 c-13 -16 -12 -17 4 -4 9 7 17 15 17 17 0 8 -8 3 -21 -13z"/>
<path d="M2530 2130 c0 -5 5 -10 11 -10 5 0 7 5 4 10 -3 6 -8 10 -11 10 -2 0
-4 -4 -4 -10z"/>
<path d="M2382 2110 c0 -14 2 -19 5 -12 2 6 2 18 0 25 -3 6 -5 1 -5 -13z"/>
<path d="M501 2104 c0 -11 3 -14 6 -6 3 7 2 16 -1 19 -3 4 -6 -2 -5 -13z"/>
<path d="M492 2060 c0 -14 2 -19 5 -12 2 6 2 18 0 25 -3 6 -5 1 -5 -13z"/>
<path d="M2182 2040 c0 -14 2 -19 5 -12 2 6 2 18 0 25 -3 6 -5 1 -5 -13z"/>
<path d="M2306 2047 c3 -10 9 -15 12 -12 3 3 0 11 -7 18 -10 9 -11 8 -5 -6z"/>
<path d="M2346 2043 c-6 -14 -5 -15 5 -6 7 7 10 15 7 18 -3 3 -9 -2 -12 -12z"/>
<path d="M893 2017 c-3 -6 -1 -7 5 -3 5 3 12 1 14 -6 3 -8 6 -7 10 3 7 17 -19
22 -29 6z"/>
<path d="M975 2020 c3 -5 8 -10 11 -10 2 0 4 5 4 10 0 6 -5 10 -11 10 -5 0 -7
-4 -4 -10z"/>
<path d="M1205 2020 c-3 -5 -1 -10 4 -10 6 0 11 5 11 10 0 6 -2 10 -4 10 -3 0
-8 -4 -11 -10z"/>
<path d="M476 2005 c-3 -9 -6 -22 -5 -28 0 -7 5 -1 10 12 5 13 8 26 5 28 -2 2
-6 -3 -10 -12z"/>
<path d="M960 2001 c0 -6 4 -13 10 -16 6 -3 7 1 4 9 -7 18 -14 21 -14 7z"/>
<path d="M880 1995 c0 -5 5 -17 10 -25 5 -8 10 -10 10 -5 0 6 -5 17 -10 25 -5
8 -10 11 -10 5z"/>
<path d="M2183 1960 c0 -21 3 -37 7 -35 10 6 11 63 1 69 -5 3 -8 -12 -8 -34z"/>
<path d="M1124 1976 c22 -18 32 -20 40 -8 3 5 0 9 -7 9 -7 0 -21 4 -32 8 -20
7 -20 6 -1 -9z"/>
<path d="M2216 1973 c-6 -14 -5 -15 5 -6 7 7 10 15 7 18 -3 3 -9 -2 -12 -12z"/>
<path d="M2500 1980 c0 -5 7 -7 15 -4 8 4 15 8 15 10 0 2 -7 4 -15 4 -8 0 -15
-4 -15 -10z"/>
<path d="M953 1965 c0 -8 4 -12 9 -9 5 3 6 10 3 15 -9 13 -12 11 -12 -6z"/>
<path d="M2416 1963 c-6 -14 -5 -15 5 -6 7 7 10 15 7 18 -3 3 -9 -2 -12 -12z"/>
<path d="M1000 1949 c-7 -11 -10 -23 -7 -25 2 -2 9 7 15 21 14 30 7 33 -8 4z"/>
<path d="M1222 1958 c6 -18 25 -21 25 -3 0 8 -7 15 -14 15 -8 0 -13 -5 -11
-12z"/>
<path d="M441 1899 c-11 -34 -19 -65 -16 -67 2 -3 7 1 9 9 27 82 36 112 32
116 -2 2 -13 -24 -25 -58z"/>
<path d="M549 1943 c-13 -16 -12 -17 4 -4 9 7 17 15 17 17 0 8 -8 3 -21 -13z"/>
<path d="M876 1933 c-6 -14 -5 -15 5 -6 7 7 10 15 7 18 -3 3 -9 -2 -12 -12z"/>
<path d="M1301 1947 c2 -1 12 -9 22 -16 15 -12 17 -12 11 3 -3 9 -13 16 -22
16 -8 0 -13 -1 -11 -3z"/>
<path d="M276 1925 c-9 -26 -7 -32 5 -12 6 10 9 21 6 23 -2 3 -7 -2 -11 -11z"/>
<path d="M852 1906 c7 -8 15 -12 17 -11 5 6 -10 25 -20 25 -5 0 -4 -6 3 -14z"/>
<path d="M2220 1913 c0 -6 8 -17 18 -24 16 -13 16 -13 2 6 -8 11 -16 22 -17
24 -2 2 -3 0 -3 -6z"/>
<path d="M2406 1912 c-3 -5 1 -9 9 -9 8 0 12 4 9 9 -3 4 -7 8 -9 8 -2 0 -6 -4
-9 -8z"/>
<path d="M966 1893 c-6 -14 -5 -15 5 -6 7 7 10 15 7 18 -3 3 -9 -2 -12 -12z"/>
<path d="M910 1885 c-7 -9 -8 -15 -2 -15 5 0 12 7 16 15 3 8 4 15 2 15 -2 0
-9 -7 -16 -15z"/>
<path d="M1940 1883 c-58 -7 -53 -18 5 -15 30 2 55 8 55 13 0 5 -6 8 -12 7 -7
0 -29 -3 -48 -5z"/>
<path d="M2395 1879 c-4 -6 -5 -12 -2 -15 2 -3 7 2 10 11 7 17 1 20 -8 4z"/>
<path d="M2825 1879 c-4 -6 -5 -12 -2 -15 2 -3 7 2 10 11 7 17 1 20 -8 4z"/>
<path d="M2020 1860 c-12 -7 -10 -9 7 -7 12 0 19 5 17 9 -6 10 -6 10 -24 -2z"/>
<path d="M2271 1844 c0 -11 3 -14 6 -6 3 7 2 16 -1 19 -3 4 -6 -2 -5 -13z"/>
<path d="M2911 1844 c0 -11 3 -14 6 -6 3 7 2 16 -1 19 -3 4 -6 -2 -5 -13z"/>
<path d="M2510 1831 c0 -6 4 -13 10 -16 6 -3 7 1 4 9 -7 18 -14 21 -14 7z"/>
<path d="M880 1819 c0 -5 5 -7 10 -4 6 3 10 8 10 11 0 2 -4 4 -10 4 -5 0 -10
-5 -10 -11z"/>
<path d="M2000 1820 c-18 -12 -2 -12 25 0 13 6 15 9 5 9 -8 0 -22 -4 -30 -9z"/>
<path d="M2921 1799 c0 -13 4 -33 9 -44 7 -14 8 -8 3 20 -7 46 -13 59 -12 24z"/>
<path d="M1057 1804 c-2 -2 -14 -5 -28 -7 -13 -2 -25 -11 -27 -20 -4 -20 11
-22 26 -4 7 8 25 11 46 9 34 -4 35 -5 21 -25 -32 -46 -6 -109 51 -123 31 -8
74 23 81 58 4 21 9 26 18 18 7 -6 16 -22 19 -36 4 -14 11 -22 16 -19 6 3 10 1
10 -4 0 -6 4 -11 10 -11 5 0 0 15 -11 34 -20 34 -62 71 -109 96 -28 15 -117
40 -123 34z m115 -84 c2 -22 -1 -42 -7 -44 -5 -2 1 -5 15 -5 18 -1 21 -4 11
-10 -7 -5 -22 -6 -32 -4 -18 5 -19 20 -3 71 5 16 -11 15 -25 -2 -9 -11 -9 -15
0 -18 15 -5 5 -38 -12 -38 -6 0 -9 6 -6 14 3 8 2 16 -4 18 -18 6 15 58 37 58
18 0 23 -7 26 -40z m48 -15 c0 -7 -7 -16 -15 -19 -18 -7 -30 16 -21 40 5 13 9
14 21 4 8 -7 15 -18 15 -25z"/>
<path d="M2282 1795 c0 -11 4 -31 8 -45 6 -20 8 -21 8 -5 0 11 -4 31 -8 45 -6
20 -8 21 -8 5z"/>
<path d="M2440 1798 c0 -9 5 -20 10 -23 13 -8 13 5 0 25 -8 13 -10 13 -10 -2z"/>
<path d="M2365 1789 c-11 -16 -1 -19 13 -3 7 8 8 14 3 14 -5 0 -13 -5 -16 -11z"/>
<path d="M2250 1761 c0 -6 4 -13 10 -16 6 -3 7 1 4 9 -7 18 -14 21 -14 7z"/>
<path d="M507 1723 c3 -7 6 -13 8 -13 2 0 5 6 8 13 3 8 -1 14 -8 14 -7 0 -11
-6 -8 -14z"/>
<path d="M2220 1719 c0 -5 5 -7 10 -4 6 3 10 8 10 11 0 2 -4 4 -10 4 -5 0 -10
-5 -10 -11z"/>
<path d="M2845 1720 c-3 -5 -1 -10 4 -10 6 0 11 5 11 10 0 6 -2 10 -4 10 -3 0
-8 -4 -11 -10z"/>
<path d="M760 1699 c0 -5 5 -7 10 -4 6 3 10 8 10 11 0 2 -4 4 -10 4 -5 0 -10
-5 -10 -11z"/>
<path d="M2942 1680 c0 -14 2 -19 5 -12 2 6 2 18 0 25 -3 6 -5 1 -5 -13z"/>
<path d="M341 1674 c0 -11 3 -14 6 -6 3 7 2 16 -1 19 -3 4 -6 -2 -5 -13z"/>
<path d="M405 1660 c-10 -11 -16 -22 -14 -24 2 -2 12 7 22 20 22 29 17 32 -8
4z"/>
<path d="M742 1648 c-10 -30 -10 -31 3 -14 13 17 21 46 12 46 -1 0 -8 -15 -15
-32z"/>
<path d="M946 1647 c3 -10 9 -15 12 -12 3 3 0 11 -7 18 -10 9 -11 8 -5 -6z"/>
<path d="M1915 1651 c-16 -4 -45 -15 -63 -25 -35 -18 -112 -92 -112 -108 0 -5
7 -2 16 6 18 19 45 21 62 4 9 -9 12 -8 12 5 0 10 -8 17 -20 17 -13 0 -18 5
-13 15 3 9 10 14 16 12 6 -2 23 10 39 25 34 33 46 30 40 -11 -3 -22 2 -36 21
-55 32 -32 65 -33 101 -5 22 17 26 28 24 57 -2 21 -9 38 -18 40 -12 4 -13 2
-4 -9 16 -20 9 -51 -17 -71 -23 -20 -49 -24 -49 -8 0 6 -5 9 -11 8 -6 -2 -18
8 -27 22 -9 13 -11 21 -4 16 8 -5 12 0 12 17 0 18 6 26 25 29 14 3 28 2 31 -3
2 -4 11 -6 19 -3 8 4 13 10 10 14 -7 12 36 -1 60 -17 11 -7 31 -13 45 -14 21
0 22 -2 7 -8 -18 -7 -18 -8 -1 -21 10 -8 15 -10 11 -4 -8 13 11 23 31 17 6 -3
12 -11 12 -19 0 -9 5 -12 11 -8 14 8 -24 45 -72 69 -37 20 -147 29 -194 16z"/>
<path d="M71 1634 c0 -11 3 -14 6 -6 3 7 2 16 -1 19 -3 4 -6 -2 -5 -13z"/>
<path d="M825 1640 c-3 -5 -1 -10 4 -10 6 0 11 5 11 10 0 6 -2 10 -4 10 -3 0
-8 -4 -11 -10z"/>
<path d="M866 1625 c-3 -8 -1 -15 4 -15 6 0 10 7 10 15 0 8 -2 15 -4 15 -2 0
-6 -7 -10 -15z"/>
<path d="M1040 1630 c0 -5 5 -10 11 -10 5 0 7 5 4 10 -3 6 -8 10 -11 10 -2 0
-4 -4 -4 -10z"/>
<path d="M1253 1618 c7 -4 21 -8 33 -8 11 0 25 -5 31 -11 9 -9 11 -7 7 7 -4
15 -14 19 -44 19 -21 0 -33 -3 -27 -7z"/>
<path d="M2230 1619 c0 -5 5 -7 10 -4 6 3 10 8 10 11 0 2 -4 4 -10 4 -5 0 -10
-5 -10 -11z"/>
<path d="M1944 1609 c-8 -14 16 -60 28 -53 4 3 8 15 7 27 0 20 -1 21 -8 3 -5
-14 -10 -16 -15 -7 -4 6 -5 18 -2 26 6 18 0 20 -10 4z"/>
<path d="M2850 1606 c0 -8 4 -17 9 -20 5 -4 7 3 4 14 -6 23 -13 26 -13 6z"/>
<path d="M2955 1585 c3 -22 5 -60 5 -85 0 -27 4 -40 8 -32 8 12 -2 125 -13
147 -3 6 -3 -8 0 -30z"/>
<path d="M67 1591 c-4 -17 -3 -21 5 -13 5 5 8 16 6 23 -3 8 -7 3 -11 -10z"/>
<path d="M791 1587 c-7 -13 -11 -27 -10 -33 2 -5 -5 -23 -14 -41 -9 -18 -17
-36 -17 -40 1 -4 11 10 22 32 12 22 21 46 19 53 -1 8 3 20 10 28 6 8 10 17 7
19 -3 3 -10 -5 -17 -18z"/>
<path d="M825 1599 c-4 -6 -5 -12 -2 -15 2 -3 7 2 10 11 7 17 1 20 -8 4z"/>
<path d="M853 1585 c-3 -9 -3 -18 -1 -21 3 -3 8 4 11 16 6 23 -1 27 -10 5z"/>
<path d="M366 1573 c-6 -14 -5 -15 5 -6 7 7 10 15 7 18 -3 3 -9 -2 -12 -12z"/>
<path d="M1145 1571 c-3 -5 -2 -12 3 -15 5 -3 9 1 9 9 0 17 -3 19 -12 6z"/>
<path d="M1090 1566 c0 -2 9 -6 20 -9 11 -3 20 -1 20 4 0 5 -9 9 -20 9 -11 0
-20 -2 -20 -4z"/>
<path d="M1210 1561 c0 -5 9 -7 20 -4 11 3 20 7 20 9 0 2 -9 4 -20 4 -11 0
-20 -4 -20 -9z"/>
<path d="M2286 1557 c3 -10 9 -15 12 -12 3 3 0 11 -7 18 -10 9 -11 8 -5 -6z"/>
<path d="M2820 1520 c0 -29 3 -50 7 -46 7 7 5 87 -3 95 -2 2 -4 -20 -4 -49z"/>
<path d="M2856 1564 c7 -3 10 -15 7 -27 -5 -22 -5 -22 10 -2 15 20 7 36 -18
34 -5 0 -5 -3 1 -5z"/>
<path d="M325 1540 c-3 -5 -1 -10 4 -10 6 0 11 5 11 10 0 6 -2 10 -4 10 -3 0
-8 -4 -11 -10z"/>
<path d="M351 1491 c-8 -34 -11 -64 -8 -67 3 -3 9 10 12 30 4 20 11 39 16 42
13 7 11 -2 -8 -63 -13 -41 -19 -50 -24 -36 -4 11 -7 -1 -7 -29 0 -27 -4 -54
-9 -60 -6 -7 -13 -29 -16 -48 -4 -19 -15 -75 -26 -124 -18 -86 -20 -122 -5
-135 4 -3 4 2 1 12 -4 9 -3 17 2 17 4 0 9 26 9 58 1 31 8 82 17 112 45 158 55
189 69 230 10 28 14 34 12 18 -2 -16 1 -28 7 -28 12 0 4 53 -15 99 l-13 33
-14 -61z"/>
<path d="M830 1529 c0 -5 5 -7 10 -4 6 3 10 8 10 11 0 2 -4 4 -10 4 -5 0 -10
-5 -10 -11z"/>
<path d="M2156 1503 c-6 -14 -5 -15 5 -6 7 7 10 15 7 18 -3 3 -9 -2 -12 -12z"/>
<path d="M2284 1509 c-4 -7 -3 -9 4 -5 5 3 12 0 15 -6 2 -7 7 -10 11 -7 4 3 0
12 -8 18 -11 9 -16 9 -22 0z"/>
<path d="M1870 1500 c8 -5 20 -10 25 -10 6 0 3 5 -5 10 -8 5 -19 10 -25 10 -5
0 -3 -5 5 -10z"/>
<path d="M821 1474 c0 -11 3 -14 6 -6 3 7 2 16 -1 19 -3 4 -6 -2 -5 -13z"/>
<path d="M1839 1461 c13 -11 29 -17 37 -14 17 6 19 16 2 11 -7 -3 -19 1 -26 9
-7 7 -18 13 -24 13 -6 0 -1 -9 11 -19z"/>
<path d="M2253 1466 c4 -10 7 -22 7 -27 0 -5 4 -9 9 -9 12 0 2 38 -12 47 -7 4
-8 0 -4 -11z"/>
<path d="M225 1440 c-27 -30 -12 -34 15 -5 13 14 19 25 13 25 -5 0 -18 -9 -28
-20z"/>
<path d="M615 1450 c-3 -6 1 -7 9 -4 18 7 21 14 7 14 -6 0 -13 -4 -16 -10z"/>
<path d="M2295 1450 c3 -5 11 -10 16 -10 6 0 7 5 4 10 -3 6 -11 10 -16 10 -6
0 -7 -4 -4 -10z"/>
<path d="M1925 1440 c3 -5 11 -10 16 -10 6 0 7 5 4 10 -3 6 -11 10 -16 10 -6
0 -7 -4 -4 -10z"/>
<path d="M2792 1430 c0 -14 2 -19 5 -12 2 6 2 18 0 25 -3 6 -5 1 -5 -13z"/>
<path d="M2835 1440 c3 -5 8 -10 11 -10 2 0 4 5 4 10 0 6 -5 10 -11 10 -5 0
-7 -4 -4 -10z"/>
<path d="M2961 1434 c0 -11 3 -14 6 -6 3 7 2 16 -1 19 -3 4 -6 -2 -5 -13z"/>
<path d="M15 1340 c2 -69 12 -138 29 -202 109 -425 388 -774 774 -971 192 -98
405 -158 554 -156 l73 1 -65 9 c-203 27 -290 45 -290 62 0 5 -4 6 -8 3 -5 -3
-31 3 -57 13 -46 18 -79 57 -94 111 -2 8 -15 46 -28 85 -12 38 -23 75 -23 82
0 7 -4 13 -9 13 -9 0 -8 -8 10 -90 11 -45 33 -110 50 -142 6 -12 5 -18 -1 -18
-5 0 -10 5 -10 11 0 5 -4 8 -9 5 -9 -6 -184 82 -189 96 -2 4 -10 8 -18 8 -8 0
-14 5 -14 11 0 5 -5 7 -10 4 -6 -3 -10 1 -10 10 0 9 -4 14 -9 11 -5 -3 -12 1
-15 10 -3 8 -10 13 -15 9 -5 -3 -17 5 -26 17 -8 13 -19 22 -23 20 -4 -1 -9 7
-10 19 -3 18 -6 19 -14 8 -7 -10 -9 -7 -5 12 2 15 -1 26 -8 26 -7 0 -10 -9 -7
-20 4 -17 3 -18 -16 -6 -12 7 -22 22 -24 34 -2 13 -9 19 -20 17 -10 -2 -18 2
-18 8 0 5 5 10 10 10 6 0 10 5 10 11 0 8 -4 8 -14 0 -11 -9 -24 1 -67 51 -29
35 -59 68 -66 74 -7 6 -10 14 -6 17 3 4 1 7 -6 7 -8 0 -10 7 -6 19 3 11 1 22
-5 26 -9 6 -7 36 7 75 7 21 7 116 -1 128 -3 6 -3 18 0 27 5 13 8 14 15 3 6 -8
9 2 9 29 0 23 4 44 10 48 5 3 7 12 4 19 -3 8 -1 17 5 20 11 7 4 36 -9 36 -4 0
-10 -19 -13 -41 -5 -38 -24 -65 -36 -53 -3 3 -1 8 5 12 6 4 8 15 5 25 -4 12
-12 -2 -25 -45 -10 -35 -28 -94 -40 -133 l-23 -70 -27 60 c-15 33 -35 76 -43
95 -9 19 -22 47 -30 62 -7 14 -13 37 -13 50 0 12 -7 32 -15 42 -8 11 -15 32
-15 47 0 15 -7 40 -15 55 -9 17 -15 56 -15 97 0 37 -4 67 -9 67 -5 0 -14 28
-20 63 -10 59 -10 57 -6 -43z m295 -407 c0 5 4 5 10 2 6 -4 2 -14 -9 -26 -10
-11 -23 -42 -28 -68 -9 -45 -8 -48 10 -43 18 5 19 2 12 -29 -4 -19 -8 -53 -8
-75 -1 -28 -5 -40 -14 -37 -17 7 -26 59 -14 82 6 11 11 26 10 33 0 7 -9 -5
-19 -27 l-19 -40 0 31 c-1 17 10 64 24 104 14 40 25 83 25 94 0 17 2 18 10 6
5 -8 10 -11 10 -7z m-3 -110 c-3 -10 -5 -4 -5 12 0 17 2 24 5 18 2 -7 2 -21 0
-30z"/>
<path d="M775 1431 c-6 -11 13 -26 22 -17 4 3 1 6 -6 6 -7 0 -9 5 -6 10 3 6 4
10 1 10 -3 0 -7 -4 -11 -9z"/>
<path d="M404 1403 c-3 -16 -13 -43 -21 -61 -8 -18 -15 -46 -15 -62 -1 -17 -5
-30 -10 -30 -4 0 -8 -5 -8 -11 0 -5 5 -7 10 -4 6 3 10 -1 10 -9 0 -8 -4 -18
-10 -21 -5 -3 -10 -17 -10 -31 0 -14 -4 -23 -9 -19 -5 3 -13 0 -17 -6 -4 -7
-3 -9 3 -6 6 4 13 -5 15 -22 2 -17 2 -29 -1 -28 -3 1 -8 -2 -10 -8 -2 -5 -7
-19 -11 -31 -5 -11 -4 -27 1 -35 6 -10 9 -7 9 14 0 15 4 27 10 27 5 0 12 11
16 25 4 15 11 22 18 18 6 -3 2 4 -9 17 -11 13 -14 20 -6 15 11 -6 13 -4 8 8
-3 9 -2 19 3 22 5 3 9 13 10 23 3 79 7 104 15 110 6 4 10 14 11 22 0 8 4 34 8
57 6 32 12 40 25 36 14 -4 14 -3 1 6 -23 16 -29 13 -36 -16z"/>
<path d="M695 1419 c-4 -6 -5 -12 -2 -15 2 -3 7 2 10 11 7 17 1 20 -8 4z"/>
<path d="M720 1415 c-7 -9 -11 -17 -9 -20 3 -2 10 5 17 15 14 24 10 26 -8 5z"/>
<path d="M376 1393 c-6 -14 -5 -15 5 -6 7 7 10 15 7 18 -3 3 -9 -2 -12 -12z"/>
<path d="M2835 1328 c0 -43 3 -78 8 -78 4 0 7 24 8 53 0 28 2 64 3 78 1 14 -3
26 -9 26 -6 0 -10 -32 -10 -79z"/>
<path d="M2950 1371 c0 -21 -3 -54 -6 -72 -4 -19 -4 -31 0 -28 10 9 24 139 14
139 -4 0 -8 -17 -8 -39z"/>
<path d="M2270 1391 c0 -10 19 -25 25 -20 1 2 -3 10 -11 17 -8 7 -14 8 -14 3z"/>
<path d="M640 1370 c-9 -6 -10 -10 -3 -10 6 0 15 5 18 10 8 12 4 12 -15 0z"/>
<path d="M2750 1369 c0 -5 5 -7 10 -4 6 3 10 8 10 11 0 2 -4 4 -10 4 -5 0 -10
-5 -10 -11z"/>
<path d="M41 1344 c0 -11 3 -14 6 -6 3 7 2 16 -1 19 -3 4 -6 -2 -5 -13z"/>
<path d="M766 1344 c-4 -9 -4 -19 -1 -22 2 -3 7 3 11 12 4 9 4 19 1 22 -2 3
-7 -3 -11 -12z"/>
<path d="M2565 1340 c3 -5 8 -10 11 -10 2 0 4 5 4 10 0 6 -5 10 -11 10 -5 0
-7 -4 -4 -10z"/>
<path d="M121 1304 c0 -11 3 -14 6 -6 3 7 2 16 -1 19 -3 4 -6 -2 -5 -13z"/>
<path d="M670 1309 c0 -5 5 -7 10 -4 6 3 10 8 10 11 0 2 -4 4 -10 4 -5 0 -10
-5 -10 -11z"/>
<path d="M2301 1294 c0 -11 3 -14 6 -6 3 7 2 16 -1 19 -3 4 -6 -2 -5 -13z"/>
<path d="M785 1289 c-4 -6 -5 -12 -2 -15 2 -3 7 2 10 11 7 17 1 20 -8 4z"/>
<path d="M2707 1274 c6 -15 23 -19 23 -5 0 5 -7 11 -14 14 -10 4 -13 1 -9 -9z"/>
<path d="M2281 1264 c0 -11 3 -14 6 -6 3 7 2 16 -1 19 -3 4 -6 -2 -5 -13z"/>
<path d="M2795 1270 c3 -5 8 -10 11 -10 2 0 4 5 4 10 0 6 -5 10 -11 10 -5 0
-7 -4 -4 -10z"/>
<path d="M586 1244 c-5 -14 -4 -15 9 -4 17 14 19 20 6 20 -5 0 -12 -7 -15 -16z"/>
<path d="M625 1250 c-3 -5 -1 -10 4 -10 6 0 11 5 11 10 0 6 -2 10 -4 10 -3 0
-8 -4 -11 -10z"/>
<path d="M2767 1249 c7 -7 15 -10 18 -7 3 3 -2 9 -12 12 -14 6 -15 5 -6 -5z"/>
<path d="M790 1221 c0 -6 4 -13 10 -16 6 -3 7 1 4 9 -7 18 -14 21 -14 7z"/>
<path d="M2775 1220 c3 -5 8 -10 11 -10 2 0 4 5 4 10 0 6 -5 10 -11 10 -5 0
-7 -4 -4 -10z"/>
<path d="M773 1195 c0 -8 4 -12 9 -9 5 3 6 10 3 15 -9 13 -12 11 -12 -6z"/>
<path d="M2343 1179 c-2 -23 3 -25 10 -4 4 8 3 16 -1 19 -4 3 -9 -4 -9 -15z"/>
<path d="M539 1163 c-13 -16 -12 -17 4 -4 9 7 17 15 17 17 0 8 -8 3 -21 -13z"/>
<path d="M747 1163 c-3 -5 4 -15 16 -23 21 -12 21 -12 7 6 -8 10 -15 20 -16
22 -1 2 -4 -1 -7 -5z"/>
<path d="M2860 1151 c0 -5 -3 -16 -6 -25 -3 -9 -2 -16 3 -16 5 0 10 11 11 25
1 14 0 25 -3 25 -3 0 -5 -4 -5 -9z"/>
<path d="M450 1130 c-8 -15 -8 -18 3 -14 8 3 14 11 14 19 0 20 -4 19 -17 -5z"/>
<path d="M532 1105 c-7 -15 -8 -25 -2 -25 6 0 10 4 10 9 0 5 7 17 16 25 12 13
13 16 1 16 -7 0 -19 -11 -25 -25z"/>
<path d="M2334 1084 c-18 -39 -19 -50 -8 -52 8 -2 14 -8 14 -13 0 -6 -4 -8 -9
-5 -5 4 -7 -4 -3 -16 5 -21 6 -21 13 -2 4 10 4 31 2 46 -3 16 0 34 7 42 6 8
10 23 8 32 -2 10 -11 -2 -24 -32z"/>
<path d="M1692 1080 c0 -14 2 -19 5 -12 2 6 2 18 0 25 -3 6 -5 1 -5 -13z"/>
<path d="M600 1075 c-7 -9 -11 -17 -9 -20 3 -2 10 5 17 15 14 24 10 26 -8 5z"/>
<path d="M396 1053 c-6 -14 -5 -15 5 -6 7 7 10 15 7 18 -3 3 -9 -2 -12 -12z"/>
<path d="M445 1059 c-4 -6 -5 -12 -2 -15 2 -3 7 2 10 11 7 17 1 20 -8 4z"/>
<path d="M718 1013 c-6 -62 -2 -66 12 -13 7 27 8 46 2 52 -6 6 -11 -7 -14 -39z"/>
<path d="M465 1029 c-4 -6 -5 -12 -2 -15 2 -3 7 2 10 11 7 17 1 20 -8 4z"/>
<path d="M380 1015 c-11 -13 -10 -14 4 -9 9 3 16 10 16 15 0 13 -6 11 -20 -6z"/>
<path d="M640 999 c-6 -11 -10 -25 -7 -32 2 -6 9 3 15 21 12 36 8 42 -8 11z"/>
<path d="M1290 1010 c-9 -5 -9 -9 -1 -14 6 -4 15 -5 19 -2 5 3 21 -1 36 -9 16
-9 26 -10 24 -4 -5 16 -63 38 -78 29z"/>
<path d="M2295 997 c-9 -32 -114 -210 -126 -215 -5 -2 -9 -8 -9 -13 0 -9 -7
-19 -65 -88 -16 -20 -34 -41 -40 -48 -5 -7 -38 -42 -72 -78 -34 -36 -58 -65
-53 -65 5 0 26 18 46 40 20 22 41 37 45 34 5 -3 9 1 9 8 0 7 24 41 53 74 28
34 62 73 74 87 12 15 34 49 47 76 14 27 29 51 33 53 15 6 74 129 70 146 -3 12
-6 9 -12 -11z"/>
<path d="M252 990 c0 -14 2 -19 5 -12 2 6 2 18 0 25 -3 6 -5 1 -5 -13z"/>
<path d="M1236 995 c7 -18 72 -57 78 -46 8 12 -4 21 -26 21 -10 0 -23 9 -30
20 -15 23 -30 27 -22 5z"/>
<path d="M777 989 c7 -7 15 -10 18 -7 3 3 -2 9 -12 12 -14 6 -15 5 -6 -5z"/>
<path d="M370 965 c-7 -9 -8 -15 -2 -15 5 0 12 7 16 15 3 8 4 15 2 15 -2 0 -9
-7 -16 -15z"/>
<path d="M1560 964 l-35 -12 47 1 c46 2 61 10 36 19 -7 3 -29 -1 -48 -8z"/>
<path d="M1395 950 c10 -11 20 -20 23 -20 3 0 -3 9 -13 20 -10 11 -20 20 -23
20 -3 0 3 -9 13 -20z"/>
<path d="M256 943 c-6 -14 -5 -15 5 -6 7 7 10 15 7 18 -3 3 -9 -2 -12 -12z"/>
<path d="M819 943 c-13 -16 -12 -17 4 -4 9 7 17 15 17 17 0 8 -8 3 -21 -13z"/>
<path d="M2820 935 c7 -9 15 -13 17 -11 7 7 -7 26 -19 26 -6 0 -6 -6 2 -15z"/>
<path d="M705 930 c-3 -5 -1 -10 4 -10 6 0 11 5 11 10 0 6 -2 10 -4 10 -3 0
-8 -4 -11 -10z"/>
<path d="M411 914 c0 -11 3 -14 6 -6 3 7 2 16 -1 19 -3 4 -6 -2 -5 -13z"/>
<path d="M1658 923 c7 -3 16 -2 19 1 4 3 -2 6 -13 5 -11 0 -14 -3 -6 -6z"/>
<path d="M360 905 c0 -8 5 -15 10 -15 6 0 10 7 10 15 0 8 -4 15 -10 15 -5 0
-10 -7 -10 -15z"/>
<path d="M2360 890 c0 -11 4 -20 9 -20 5 0 7 9 4 20 -3 11 -7 20 -9 20 -2 0
-4 -9 -4 -20z"/>
<path d="M360 870 c0 -5 5 -10 11 -10 5 0 7 5 4 10 -3 6 -8 10 -11 10 -2 0 -4
-4 -4 -10z"/>
<path d="M700 870 c-1 -8 -2 -18 -2 -21 1 -4 -3 -21 -8 -38 -5 -19 -5 -29 0
-26 12 7 24 70 17 87 -4 10 -6 9 -7 -2z"/>
<path d="M786 843 c-6 -14 -5 -15 5 -6 7 7 10 15 7 18 -3 3 -9 -2 -12 -12z"/>
<path d="M835 850 c3 -5 8 -10 11 -10 2 0 4 5 4 10 0 6 -5 10 -11 10 -5 0 -7
-4 -4 -10z"/>
<path d="M395 820 c-3 -6 1 -7 9 -4 18 7 21 14 7 14 -6 0 -13 -4 -16 -10z"/>
<path d="M371 784 c0 -11 3 -14 6 -6 3 7 2 16 -1 19 -3 4 -6 -2 -5 -13z"/>
<path d="M810 792 c0 -12 19 -26 26 -19 2 2 -2 10 -11 17 -9 8 -15 8 -15 2z"/>
<path d="M685 761 c-3 -5 -2 -12 3 -15 5 -3 9 1 9 9 0 17 -3 19 -12 6z"/>
<path d="M1098 762 c-10 -2 -18 -7 -18 -10 0 -7 19 -13 163 -51 44 -11 97 -29
118 -40 41 -22 66 -28 39 -11 -11 7 -2 10 32 10 25 0 54 3 64 7 11 4 15 3 11
-4 -4 -6 2 -13 13 -16 12 -3 18 -1 14 5 -4 6 0 14 7 19 8 5 -15 6 -55 3 -48
-4 -66 -3 -62 5 9 14 -7 14 -21 0 -8 -8 -17 -8 -31 0 -10 6 -22 7 -26 4 -3 -3
-6 -1 -6 6 0 8 -7 11 -15 7 -9 -3 -15 0 -15 10 0 9 5 12 12 8 7 -5 8 -3 3 6
-6 10 -11 9 -21 -4 -8 -12 -14 -14 -19 -6 -6 9 -10 9 -16 -1 -6 -10 -9 -11 -9
-1 0 6 -11 12 -25 12 -14 0 -28 6 -31 14 -3 8 -12 12 -19 9 -8 -2 -27 1 -42 9
-15 7 -36 12 -45 10z"/>
<path d="M841 744 c0 -11 3 -14 6 -6 3 7 2 16 -1 19 -3 4 -6 -2 -5 -13z"/>
<path d="M555 739 c-4 -6 -5 -12 -2 -15 2 -3 7 2 10 11 7 17 1 20 -8 4z"/>
<path d="M860 716 c0 -5 17 -43 37 -85 20 -42 36 -79 35 -83 -1 -5 2 -8 7 -8
5 0 12 -11 15 -25 4 -14 11 -25 16 -25 6 0 10 -5 10 -11 0 -6 9 -22 20 -36 11
-14 20 -34 20 -45 0 -11 4 -17 9 -13 5 3 12 -4 16 -15 3 -11 12 -20 18 -20 13
0 43 -40 39 -53 -1 -4 1 -6 5 -5 14 4 54 -23 48 -32 -3 -6 1 -7 9 -4 12 4 3
17 -35 52 -52 48 -107 122 -150 202 -13 25 -30 51 -36 58 -7 7 -13 18 -13 23
0 5 -16 37 -35 71 -19 35 -35 59 -35 54z"/>
<path d="M576 676 c-3 -13 -9 -31 -12 -40 -3 -9 -2 -16 3 -16 5 0 10 6 10 13
0 6 4 24 8 40 4 15 5 27 2 27 -3 0 -8 -11 -11 -24z"/>
<path d="M540 675 c0 -8 2 -15 4 -15 2 0 6 7 10 15 3 8 1 15 -4 15 -6 0 -10
-7 -10 -15z"/>
<path d="M1560 672 c0 -15 24 -32 45 -32 12 0 25 -4 31 -9 15 -15 45 2 34 19
-7 11 -12 12 -21 3 -6 -6 -18 -9 -26 -6 -12 5 -12 7 -1 15 8 5 3 6 -14 2 -18
-4 -28 -2 -28 5 0 6 -4 11 -10 11 -5 0 -10 -4 -10 -8z"/>
<path d="M660 650 c0 -5 5 -10 11 -10 5 0 7 5 4 10 -3 6 -8 10 -11 10 -2 0 -4
-4 -4 -10z"/>
<path d="M345 640 c-3 -6 1 -7 9 -4 18 7 21 14 7 14 -6 0 -13 -4 -16 -10z"/>
<path d="M356 607 c3 -10 9 -15 12 -12 3 3 0 11 -7 18 -10 9 -11 8 -5 -6z"/>
<path d="M465 600 c-3 -6 1 -7 9 -4 18 7 21 14 7 14 -6 0 -13 -4 -16 -10z"/>
<path d="M659 583 c0 -5 -3 -21 -5 -38 -3 -16 -3 -27 0 -25 7 8 17 70 11 70
-3 0 -5 -3 -6 -7z"/>
<path d="M587 573 c-4 -3 -7 -11 -7 -17 0 -6 5 -5 12 2 6 6 9 14 7 17 -3 3 -9
2 -12 -2z"/>
<path d="M543 550 c-1 -11 2 -18 8 -15 11 7 12 35 1 35 -4 0 -8 -9 -9 -20z"/>
<path d="M1226 552 c-2 -4 -1 -14 4 -22 7 -11 11 -11 23 -1 12 9 16 9 19 0 3
-9 8 -9 24 0 15 10 15 11 2 7 -10 -3 -18 -1 -18 5 0 5 -11 7 -26 3 -19 -5 -25
-4 -20 5 4 6 5 11 2 11 -3 0 -7 -4 -10 -8z"/>
<path d="M585 520 c-4 -12 -5 -24 -2 -27 3 -2 8 5 12 17 4 12 5 24 2 27 -3 2
-8 -5 -12 -17z"/>
<path d="M1320 529 c0 -5 11 -9 25 -9 14 0 25 2 25 4 0 2 -11 6 -25 8 -14 3
-25 1 -25 -3z"/>
<path d="M2371 524 c0 -11 3 -14 6 -6 3 7 2 16 -1 19 -3 4 -6 -2 -5 -13z"/>
<path d="M1380 526 c0 -2 7 -6 15 -10 8 -3 15 -1 15 4 0 6 -7 10 -15 10 -8 0
-15 -2 -15 -4z"/>
<path d="M1296 505 c-9 -26 -7 -32 5 -12 6 10 9 21 6 23 -2 3 -7 -2 -11 -11z"/>
<path d="M1433 513 c9 -2 23 -2 30 0 6 3 -1 5 -18 5 -16 0 -22 -2 -12 -5z"/>
<path d="M581 464 c0 -11 3 -14 6 -6 3 7 2 16 -1 19 -3 4 -6 -2 -5 -13z"/>
<path d="M632 426 c0 -20 3 -36 8 -36 7 0 4 59 -4 67 -2 3 -4 -12 -4 -31z"/>
<path d="M860 446 c0 -8 -3 -21 -6 -30 -3 -9 -2 -16 3 -16 5 0 10 14 11 30 1
17 0 30 -3 30 -3 0 -5 -6 -5 -14z"/>
<path d="M898 440 c-4 -28 -4 -30 41 -121 20 -43 60 -97 115 -155 l83 -89 94
0 c278 2 730 117 693 177 -3 4 2 8 10 8 10 0 13 6 9 16 -5 12 -9 10 -23 -11
-23 -35 -44 -48 -109 -69 -44 -14 -56 -15 -63 -4 -7 10 -8 8 -4 -4 6 -19 5
-20 -34 -22 -14 -1 -31 -5 -37 -9 -7 -5 -13 -6 -13 -2 0 3 -14 -2 -31 -11 -18
-9 -45 -14 -61 -12 -16 3 -31 1 -34 -4 -10 -15 -52 -8 -57 9 -4 15 -5 15 -6 2
-1 -11 -15 -18 -43 -23 -24 -4 -54 -9 -68 -11 -54 -11 -80 -11 -80 -1 0 6 -5
4 -10 -4 -8 -13 -10 -12 -10 3 0 9 -4 17 -10 17 -5 0 -7 -7 -3 -15 4 -13 -2
-15 -31 -13 -20 1 -36 6 -36 10 0 4 -6 5 -13 2 -16 -6 -86 46 -87 64 0 7 -4
10 -10 7 -5 -3 -10 1 -10 9 0 9 -4 16 -10 16 -5 0 -10 6 -10 13 0 7 -8 17 -18
23 -27 17 -95 133 -108 184 -10 37 -12 41 -16 20z"/>
<path d="M571 414 c0 -11 3 -14 6 -6 3 7 2 16 -1 19 -3 4 -6 -2 -5 -13z"/>
<path d="M1758 383 c7 -3 16 -2 19 1 4 3 -2 6 -13 5 -11 0 -14 -3 -6 -6z"/>
<path d="M633 365 c0 -8 4 -12 9 -9 5 3 6 10 3 15 -9 13 -12 11 -12 -6z"/>
<path d="M1692 327 c-31 -33 -27 -42 4 -10 14 14 23 27 21 29 -2 2 -13 -6 -25
-19z"/>
<path d="M1964 247 c-2 -27 -43 -94 -62 -102 -7 -2 -17 5 -22 18 -8 21 -9 21
-9 1 -1 -20 16 -44 32 -44 4 0 5 5 1 12 -5 8 -2 9 10 5 10 -4 15 -3 11 3 -3 6
1 10 9 10 9 0 17 7 17 15 1 8 2 21 3 28 0 6 6 12 13 12 6 0 15 4 20 9 5 5 2 6
-6 1 -10 -6 -12 -1 -6 24 4 17 3 31 -2 31 -4 0 -9 -11 -9 -23z"/>
<path d="M1595 250 c3 -5 8 -10 11 -10 2 0 4 5 4 10 0 6 -5 10 -11 10 -5 0 -7
-4 -4 -10z"/>
</g>
</svg>
